# xmcd CD database file
#
# Track frame offsets:
#	150
#	13862
#	27222
#	41744
#	63781
#	79584
#	91822
#	105283
#	127080
#	142862
#	172640
#	186346
#	199735
#	214257
#	236301
#	252108
#	264347
#
# Disc length: 3700 seconds
#
# Revision: 0
# Processed by: cddbd v1.5.2PL0 Copyright (c) Steve Scherf et al.
# Submitted via: CDex 1.51
#
DISCID=d40e7211
DTITLE=Ron Dunivan - It's Hard To Find The Old Road Signs Of U.S. 66
DYEAR=1999
DGENRE=Country
TTITLE0=Dust Bowl Baby
TTITLE1=Truck Drivers Night - Riders Of The Road
TTITLE2=Mother Of The Mother Road
TTITLE3=Thank You Dad
TTITLE4=Mama's Brass Bed
TTITLE5=Old Glory (New Version)
TTITLE6=Winslow Arizona, Americana U.S.A.
TTITLE7=Thank You Mom
TTITLE8=Dust Bowl Refugees
TTITLE9=It's Hard To Find The Old Road Signs Of U.S. 66
TTITLE10=Dust Bowl Baby (Instr)
TTITLE11=Truck Drivers Night - Riders Of The Road (Instr)
TTITLE12=Mother Of The Mother Road (Instr)
TTITLE13=Thank You Dad (Instr)
TTITLE14=Mama's Brass Bed (Instr)
TTITLE15=Old Glory (Instr)
TTITLE16=Winslow Arizona, Americana U.S.A. (Instr)
EXTD=YEAR: 1999
EXTT0=
EXTT1=
EXTT2=
EXTT3=
EXTT4=
EXTT5=
EXTT6=
EXTT7=
EXTT8=
EXTT9=
EXTT10=
EXTT11=
EXTT12=
EXTT13=
EXTT14=
EXTT15=
EXTT16=
PLAYORDER=
